<mxfile host="app.diagrams.net" modified="2023-02-09T04:06:39.474Z" agent="5.0 (Windows NT 10.0; Win64; x64) AppleWebKit/537.36 (KHTML, like Gecko) Chrome/109.0.0.0 Safari/537.36" etag="7vKRSaqfURySG3x69EII" version="20.8.17" type="github">
  <diagram name="Page-1" id="azVH8oO9EMISRVaFETTL">
    <mxGraphModel dx="880" dy="484" grid="1" gridSize="10" guides="1" tooltips="1" connect="1" arrows="1" fold="1" page="1" pageScale="1" pageWidth="827" pageHeight="1169" math="0" shadow="0">
      <root>
        <mxCell id="0" />
        <mxCell id="1" parent="0" />
        <mxCell id="8pKyJXncJ351iCCDFOJG-1" value="customers" style="swimlane;childLayout=stackLayout;horizontal=1;startSize=30;horizontalStack=0;rounded=1;fontSize=14;fontStyle=0;strokeWidth=2;resizeParent=0;resizeLast=1;shadow=0;dashed=0;align=center;" vertex="1" parent="1">
          <mxGeometry x="120" y="40" width="160" height="150" as="geometry" />
        </mxCell>
        <mxCell id="8pKyJXncJ351iCCDFOJG-2" value="cust_id&#xa;cust_name&#xa;cust_vhicle&#xa;services&#xa;advisor_name" style="align=left;strokeColor=none;fillColor=none;spacingLeft=4;fontSize=12;verticalAlign=top;resizable=0;rotatable=0;part=1;" vertex="1" parent="8pKyJXncJ351iCCDFOJG-1">
          <mxGeometry y="30" width="160" height="120" as="geometry" />
        </mxCell>
        <mxCell id="8pKyJXncJ351iCCDFOJG-3" value="vhicles" style="swimlane;childLayout=stackLayout;horizontal=1;startSize=30;horizontalStack=0;rounded=1;fontSize=14;fontStyle=0;strokeWidth=2;resizeParent=0;resizeLast=1;shadow=0;dashed=0;align=center;" vertex="1" parent="1">
          <mxGeometry x="440" y="40" width="160" height="120" as="geometry" />
        </mxCell>
        <mxCell id="8pKyJXncJ351iCCDFOJG-4" value="vhicle_id&#xa;vhicle_name&#xa;vhicle_model&#xa;vhicle_owner" style="align=left;strokeColor=none;fillColor=none;spacingLeft=4;fontSize=12;verticalAlign=top;resizable=0;rotatable=0;part=1;" vertex="1" parent="8pKyJXncJ351iCCDFOJG-3">
          <mxGeometry y="30" width="160" height="90" as="geometry" />
        </mxCell>
        <mxCell id="8pKyJXncJ351iCCDFOJG-6" value="" style="edgeStyle=entityRelationEdgeStyle;fontSize=12;html=1;endArrow=ERoneToMany;rounded=0;entryX=0;entryY=0.25;entryDx=0;entryDy=0;" edge="1" parent="1" target="8pKyJXncJ351iCCDFOJG-4">
          <mxGeometry width="100" height="100" relative="1" as="geometry">
            <mxPoint x="280" y="130" as="sourcePoint" />
            <mxPoint x="380" y="30" as="targetPoint" />
          </mxGeometry>
        </mxCell>
        <mxCell id="8pKyJXncJ351iCCDFOJG-11" value="sesrvices" style="swimlane;childLayout=stackLayout;horizontal=1;startSize=30;horizontalStack=0;rounded=1;fontSize=14;fontStyle=0;strokeWidth=2;resizeParent=0;resizeLast=1;shadow=0;dashed=0;align=center;" vertex="1" parent="1">
          <mxGeometry x="110" y="250" width="160" height="120" as="geometry" />
        </mxCell>
        <mxCell id="8pKyJXncJ351iCCDFOJG-12" value="service_id&#xa;service_name&#xa;service_cahrge_p_hour" style="align=left;strokeColor=none;fillColor=none;spacingLeft=4;fontSize=12;verticalAlign=top;resizable=0;rotatable=0;part=1;" vertex="1" parent="8pKyJXncJ351iCCDFOJG-11">
          <mxGeometry y="30" width="160" height="90" as="geometry" />
        </mxCell>
        <mxCell id="8pKyJXncJ351iCCDFOJG-13" value="orders" style="swimlane;childLayout=stackLayout;horizontal=1;startSize=30;horizontalStack=0;rounded=1;fontSize=14;fontStyle=0;strokeWidth=2;resizeParent=0;resizeLast=1;shadow=0;dashed=0;align=center;" vertex="1" parent="1">
          <mxGeometry x="390" y="310" width="160" height="110" as="geometry" />
        </mxCell>
        <mxCell id="8pKyJXncJ351iCCDFOJG-14" value="vhicle_id&#xa;service_id&#xa;service_date&#xa;total_price&#xa;advisor_id" style="align=left;strokeColor=none;fillColor=none;spacingLeft=4;fontSize=12;verticalAlign=top;resizable=0;rotatable=0;part=1;" vertex="1" parent="8pKyJXncJ351iCCDFOJG-13">
          <mxGeometry y="30" width="160" height="80" as="geometry" />
        </mxCell>
        <mxCell id="8pKyJXncJ351iCCDFOJG-16" value="" style="edgeStyle=entityRelationEdgeStyle;fontSize=12;html=1;endArrow=ERoneToMany;rounded=0;entryX=0;entryY=0.25;entryDx=0;entryDy=0;" edge="1" parent="1" target="8pKyJXncJ351iCCDFOJG-14">
          <mxGeometry width="100" height="100" relative="1" as="geometry">
            <mxPoint x="280" y="165" as="sourcePoint" />
            <mxPoint x="380" y="65" as="targetPoint" />
          </mxGeometry>
        </mxCell>
        <mxCell id="8pKyJXncJ351iCCDFOJG-17" value="advisors" style="swimlane;childLayout=stackLayout;horizontal=1;startSize=30;horizontalStack=0;rounded=1;fontSize=14;fontStyle=0;strokeWidth=2;resizeParent=0;resizeLast=1;shadow=0;dashed=0;align=center;" vertex="1" parent="1">
          <mxGeometry x="630" y="200" width="160" height="120" as="geometry" />
        </mxCell>
        <mxCell id="8pKyJXncJ351iCCDFOJG-18" value="advisor_id&#xa;advisor_name" style="align=left;strokeColor=none;fillColor=none;spacingLeft=4;fontSize=12;verticalAlign=top;resizable=0;rotatable=0;part=1;" vertex="1" parent="8pKyJXncJ351iCCDFOJG-17">
          <mxGeometry y="30" width="160" height="90" as="geometry" />
        </mxCell>
        <mxCell id="8pKyJXncJ351iCCDFOJG-21" value="" style="edgeStyle=entityRelationEdgeStyle;fontSize=12;html=1;endArrow=ERzeroToMany;endFill=1;rounded=0;exitX=0;exitY=0.5;exitDx=0;exitDy=0;entryX=0.713;entryY=0;entryDx=0;entryDy=0;entryPerimeter=0;" edge="1" parent="1" source="8pKyJXncJ351iCCDFOJG-18" target="8pKyJXncJ351iCCDFOJG-13">
          <mxGeometry width="100" height="100" relative="1" as="geometry">
            <mxPoint x="590" y="460" as="sourcePoint" />
            <mxPoint x="690" y="360" as="targetPoint" />
          </mxGeometry>
        </mxCell>
        <mxCell id="8pKyJXncJ351iCCDFOJG-22" value="" style="edgeStyle=entityRelationEdgeStyle;fontSize=12;html=1;endArrow=ERzeroToMany;endFill=1;startArrow=ERzeroToMany;rounded=0;exitX=1;exitY=0.5;exitDx=0;exitDy=0;entryX=0;entryY=0.75;entryDx=0;entryDy=0;" edge="1" parent="1" source="8pKyJXncJ351iCCDFOJG-12" target="8pKyJXncJ351iCCDFOJG-14">
          <mxGeometry width="100" height="100" relative="1" as="geometry">
            <mxPoint x="360" y="300" as="sourcePoint" />
            <mxPoint x="460" y="200" as="targetPoint" />
          </mxGeometry>
        </mxCell>
      </root>
    </mxGraphModel>
  </diagram>
</mxfile>
